<mxfile host="65bd71144e">
    <diagram id="C5RBs43oDa-KdzZeNtuy" name="Operator and Vehicle Models">
        <mxGraphModel dx="827" dy="1627" grid="1" gridSize="10" guides="1" tooltips="1" connect="1" arrows="1" fold="1" page="1" pageScale="1" pageWidth="1169" pageHeight="827" math="0" shadow="0">
            <root>
                <mxCell id="WIyWlLk6GJQsqaUBKTNV-0"/>
                <mxCell id="WIyWlLk6GJQsqaUBKTNV-1" parent="WIyWlLk6GJQsqaUBKTNV-0"/>
                <mxCell id="operator_table" value="&lt;b&gt;Operator&lt;/b&gt;&lt;br&gt;&lt;hr&gt;id (PK)&lt;br&gt;last_name&lt;br&gt;first_name&lt;br&gt;middle_initial&lt;br&gt;address&lt;br&gt;old_pd_number&lt;br&gt;new_pd_number&lt;br&gt;po_number&lt;br&gt;user_id (FK)&lt;br&gt;active&lt;br&gt;created_at&lt;br&gt;updated_at" style="rounded=0;whiteSpace=wrap;html=1;fillColor=#ffe6cc;strokeColor=#d79b00;align=left;spacingLeft=4;spacingRight=4;" parent="WIyWlLk6GJQsqaUBKTNV-1" vertex="1">
                    <mxGeometry x="120" y="70" width="160" height="220" as="geometry"/>
                </mxCell>
                <mxCell id="operator_type_table" value="&lt;b&gt;OperatorType&lt;/b&gt;&lt;br&gt;&lt;hr&gt;id (PK)&lt;br&gt;name&lt;br&gt;description&lt;br&gt;created_at&lt;br&gt;updated_at" style="rounded=0;whiteSpace=wrap;html=1;fillColor=#ffe6cc;strokeColor=#d79b00;align=left;spacingLeft=4;spacingRight=4;" parent="WIyWlLk6GJQsqaUBKTNV-1" vertex="1">
                    <mxGeometry x="120" y="340" width="160" height="120" as="geometry"/>
                </mxCell>
                <mxCell id="vehicle_table" value="&lt;b&gt;Vehicle&lt;/b&gt;&lt;br&gt;&lt;hr&gt;id (PK)&lt;br&gt;operator_id (FK)&lt;br&gt;old_pd_number&lt;br&gt;new_pd_number&lt;br&gt;potpot_number&lt;br&gt;vehicle_type&lt;br&gt;plate_number&lt;br&gt;engine_number&lt;br&gt;chassis_number&lt;br&gt;capacity&lt;br&gt;year_model&lt;br&gt;color&lt;br&gt;active&lt;br&gt;notes&lt;br&gt;created_at&lt;br&gt;updated_at" style="rounded=0;whiteSpace=wrap;html=1;fillColor=#ffe6cc;strokeColor=#d79b00;align=left;spacingLeft=4;spacingRight=4;" parent="WIyWlLk6GJQsqaUBKTNV-1" vertex="1">
                    <mxGeometry x="340" y="-20" width="160" height="280" as="geometry"/>
                </mxCell>
                <mxCell id="driver_table" value="&lt;b&gt;Driver&lt;/b&gt;&lt;br&gt;&lt;hr&gt;id (PK)&lt;br&gt;last_name&lt;br&gt;first_name&lt;br&gt;middle_initial&lt;br&gt;address&lt;br&gt;old_pd_number&lt;br&gt;new_pd_number&lt;br&gt;license_number&lt;br&gt;contact_number&lt;br&gt;birthdate&lt;br&gt;emergency_contact_name&lt;br&gt;emergency_contact&lt;br&gt;emergency_contact_number&lt;br&gt;active&lt;br&gt;expiration_date&lt;br&gt;operator_id (FK)&lt;br&gt;created_at&lt;br&gt;updated_at" style="rounded=0;whiteSpace=wrap;html=1;fillColor=#ffe6cc;strokeColor=#d79b00;align=left;spacingLeft=4;spacingRight=4;" parent="WIyWlLk6GJQsqaUBKTNV-1" vertex="1">
                    <mxGeometry x="340" y="320" width="180" height="300" as="geometry"/>
                </mxCell>
                <mxCell id="driver_vehicle_assignment_table" value="&lt;b&gt;DriverVehicleAssignment&lt;/b&gt;&lt;br&gt;&lt;hr&gt;id (PK)&lt;br&gt;driver_id (FK)&lt;br&gt;vehicle_id (FK)&lt;br&gt;start_date&lt;br&gt;end_date&lt;br&gt;is_active&lt;br&gt;notes&lt;br&gt;created_by_id (FK)" style="rounded=0;whiteSpace=wrap;html=1;fillColor=#ffe6cc;strokeColor=#d79b00;align=left;spacingLeft=4;spacingRight=4;" parent="WIyWlLk6GJQsqaUBKTNV-1" vertex="1">
                    <mxGeometry x="580" y="40" width="180" height="160" as="geometry"/>
                </mxCell>
                <mxCell id="operator_to_vehicle" value="" style="edgeStyle=entityRelationEdgeStyle;fontSize=12;html=1;endArrow=ERmany;startArrow=ERone;rounded=0;exitX=1;exitY=0.5;exitDx=0;exitDy=0;entryX=0;entryY=0.5;entryDx=0;entryDy=0;startFill=0;" parent="WIyWlLk6GJQsqaUBKTNV-1" source="operator_table" target="vehicle_table" edge="1">
                    <mxGeometry width="100" height="100" relative="1" as="geometry">
                        <mxPoint x="290" y="190" as="sourcePoint"/>
                        <mxPoint x="390" y="90" as="targetPoint"/>
                    </mxGeometry>
                </mxCell>
                <mxCell id="operator_to_driver" value="" style="edgeStyle=entityRelationEdgeStyle;fontSize=12;html=1;endArrow=ERmany;startArrow=ERone;rounded=0;exitX=1;exitY=0.5;exitDx=0;exitDy=0;entryX=0;entryY=0.5;entryDx=0;entryDy=0;startFill=0;" parent="WIyWlLk6GJQsqaUBKTNV-1" source="operator_table" target="driver_table" edge="1">
                    <mxGeometry width="100" height="100" relative="1" as="geometry">
                        <mxPoint x="290" y="190" as="sourcePoint"/>
                        <mxPoint x="390" y="90" as="targetPoint"/>
                    </mxGeometry>
                </mxCell>
                <mxCell id="driver_to_assignment" value="" style="edgeStyle=entityRelationEdgeStyle;fontSize=12;html=1;endArrow=ERmany;startArrow=ERone;rounded=0;exitX=1;exitY=0.53;exitDx=0;exitDy=0;startFill=0;exitPerimeter=0;entryX=0;entryY=0.606;entryDx=0;entryDy=0;entryPerimeter=0;" parent="WIyWlLk6GJQsqaUBKTNV-1" source="driver_table" target="driver_vehicle_assignment_table" edge="1">
                    <mxGeometry width="100" height="100" relative="1" as="geometry">
                        <mxPoint x="290" y="190" as="sourcePoint"/>
                        <mxPoint x="680" y="290" as="targetPoint"/>
                        <Array as="points">
                            <mxPoint x="690" y="570"/>
                            <mxPoint x="690" y="380"/>
                            <mxPoint x="580" y="180"/>
                            <mxPoint x="670" y="310"/>
                            <mxPoint x="680" y="250"/>
                            <mxPoint x="680" y="290"/>
                        </Array>
                    </mxGeometry>
                </mxCell>
                <mxCell id="vehicle_to_assignment" value="" style="edgeStyle=entityRelationEdgeStyle;fontSize=12;html=1;endArrow=ERmany;startArrow=ERone;rounded=0;exitX=1;exitY=0.5;exitDx=0;exitDy=0;entryX=0;entryY=0.5;entryDx=0;entryDy=0;startFill=0;" parent="WIyWlLk6GJQsqaUBKTNV-1" source="vehicle_table" target="driver_vehicle_assignment_table" edge="1">
                    <mxGeometry width="100" height="100" relative="1" as="geometry">
                        <mxPoint x="290" y="190" as="sourcePoint"/>
                        <mxPoint x="390" y="90" as="targetPoint"/>
                    </mxGeometry>
                </mxCell>
            </root>
        </mxGraphModel>
    </diagram>
</mxfile>